<svg width="4457" height="1329" xmlns="http://www.w3.org/2000/svg" xmlns:xlink="http://www.w3.org/1999/xlink" xml:space="preserve" overflow="hidden"><defs><linearGradient x1="-18.3479" y1="559.493" x2="2139.99" y2="559.493" gradientUnits="userSpaceOnUse" spreadMethod="reflect" id="stroke0"><stop offset="0" stop-color="#333F50"/><stop offset="1" stop-color="#8497B0"/></linearGradient><linearGradient x1="-5.70906" y1="561.474" x2="1646.79" y2="561.474" gradientUnits="userSpaceOnUse" spreadMethod="reflect" id="stroke1"><stop offset="0" stop-color="#333F50"/><stop offset="1" stop-color="#8497B0"/></linearGradient><linearGradient x1="1948.2" y1="1541.37" x2="3866.47" y2="1541.37" gradientUnits="userSpaceOnUse" spreadMethod="reflect" id="stroke2"><stop offset="0" stop-color="#333F50"/><stop offset="1" stop-color="#8497B0"/></linearGradient></defs><g transform="translate(-26 -747)"><path d="M2087 590.384C1749.43 768.723 1048.66 820.67 521.787 706.41 167.762 629.636-31.5456 492.817 4.07086 351.012" stroke="url(#stroke0)" stroke-width="36.6667" stroke-linecap="round" stroke-miterlimit="8" fill="none" fill-rule="evenodd" transform="matrix(1 0 0 -1 1799.5 1768.5)"/><path d="M1595.73 622.323C1221.8 761.248 625.764 757.319 264.443 613.546 147.018 566.821 64.464 508.806 25.4437 445.588" stroke="url(#stroke1)" stroke-width="36.6667" stroke-linecap="round" stroke-miterlimit="8" fill="none" fill-rule="evenodd" transform="matrix(-1 0 0 1 2037.5 1020.5)"/><path d="M3801.9 1570.08C3419.2 1712.3 2707.63 1738.47 2212.56 1628.53 2138.02 1611.97 2070.96 1592.81 2012.93 1571.49" stroke="url(#stroke2)" stroke-width="36.6667" stroke-linecap="round" stroke-miterlimit="8" fill="none" fill-rule="evenodd"/><text fill="#333F50" font-family="Source Sans Pro Black,Source Sans Pro Black_MSFontService,sans-serif" font-style="italic" font-weight="900" font-size="633" transform="matrix(1 0 0 1 406.262 1531)">HydroChrono</text></g></svg>